<?xml version="1.0" standalone="no"?>
<!DOCTYPE svg PUBLIC "-//W3C//DTD SVG 20010904//EN"
 "http://www.w3.org/TR/2001/REC-SVG-20010904/DTD/svg10.dtd">
<svg version="1.0" xmlns="http://www.w3.org/2000/svg"
 width="512.000000pt" height="512.000000pt" viewBox="0 0 512.000000 512.000000"
 preserveAspectRatio="xMidYMid meet">
<metadata>
Created by potrace 1.14, written by Peter Selinger 2001-2017
</metadata>
<g transform="translate(0.000000,512.000000) scale(0.100000,-0.100000)"
fill="#000000" stroke="none">
<path d="M3741 4437 c-129 -16 -252 -75 -332 -158 -133 -138 -60 -361 127
-385 62 -7 109 8 175 56 53 38 96 46 142 27 41 -18 67 -60 67 -111 0 -31 -10
-47 -71 -111 -109 -114 -558 -560 -568 -563 -5 -2 -31 10 -57 26 -88 51 -244
111 -359 139 -139 33 -383 37 -535 9 -472 -87 -879 -437 -1030 -886 -50 -148
-62 -227 -65 -424 l-4 -189 -199 -201 c-251 -253 -280 -304 -280 -486 0 -262
197 -468 460 -479 152 -7 261 44 413 190 109 106 110 106 130 87 11 -11 61
-45 110 -76 67 -41 100 -56 127 -56 43 -1 67 23 68 66 0 31 -15 44 -143 125
l-89 56 173 173 173 174 288 -288 c158 -158 288 -290 288 -293 0 -9 -14 -10
-182 -12 -137 -2 -159 -5 -177 -21 -23 -21 -27 -63 -8 -89 21 -29 72 -36 220
-32 141 3 189 10 310 40 364 93 688 357 862 703 38 76 102 259 111 321 3 20 8
39 10 42 6 10 17 141 18 224 5 264 -82 547 -237 771 l-55 81 79 79 c70 70 79
83 79 116 0 42 -27 68 -69 68 -20 0 -259 -233 -1161 -1134 -1098 -1097 -1137
-1134 -1195 -1156 -177 -65 -359 5 -437 168 -50 107 -44 236 17 331 12 20 304
317 648 661 701 702 677 682 817 686 96 4 161 -18 239 -79 85 -68 139 -82 208
-56 15 5 285 267 600 582 640 638 619 614 611 738 -15 210 -251 311 -418 180
-48 -38 -75 -45 -112 -30 -60 25 -64 93 -9 148 74 74 198 117 309 108 239 -18
410 -209 395 -442 -8 -119 -7 -128 17 -147 50 -40 103 -11 118 65 13 65 7 190
-12 262 -71 255 -342 436 -605 402z m-971 -1206 c116 -19 194 -45 323 -104
l88 -41 -162 -162 -162 -162 -234 233 c-128 128 -233 235 -233 237 0 2 17 5
37 6 21 2 39 4 41 6 7 8 241 -2 302 -13z m-180 -409 c-3 -1 -27 4 -52 12 -26
7 -82 14 -124 14 -125 0 -229 -40 -323 -124 l-53 -47 -133 133 -133 133 41 35
c91 77 242 161 358 201 l52 17 187 -185 c102 -102 183 -187 180 -189z m-823
-419 c-94 -95 -175 -173 -178 -173 -3 0 -42 36 -87 80 l-81 80 13 43 c33 105
84 205 164 317 74 104 59 107 209 -43 l133 -132 -173 -172z m1810 300 c129
-195 197 -421 196 -653 0 -104 -6 -171 -15 -176 -5 -3 -138 123 -295 281
l-286 287 169 169 c93 93 171 169 174 169 3 0 29 -35 57 -77z m-176 -684 l321
-321 -12 -42 c-30 -101 -148 -312 -216 -384 l-24 -27 -372 373 -373 372 175
175 c96 96 176 175 177 175 2 0 147 -145 324 -321z m-1963 158 l51 -54 -60
-59 -60 -59 2 80 c2 75 8 145 13 145 2 0 26 -24 54 -53z m1561 -661 l373 -373
-60 -47 c-114 -87 -325 -196 -380 -196 -12 0 -131 112 -318 299 -165 164 -308
308 -318 320 l-20 22 174 174 c96 96 175 175 175 175 0 0 168 -168 374 -374z"/>
<path d="M4024 3480 c-32 -13 -84 -78 -84 -105 0 -35 34 -65 71 -65 40 0 109
65 109 103 0 48 -52 85 -96 67z"/>
</g>
</svg>
