<?xml version="1.0" standalone="no"?>
<!DOCTYPE svg PUBLIC "-//W3C//DTD SVG 20010904//EN"
 "http://www.w3.org/TR/2001/REC-SVG-20010904/DTD/svg10.dtd">
<svg version="1.0" xmlns="http://www.w3.org/2000/svg"
 width="512.000000pt" height="512.000000pt" viewBox="0 0 512.000000 512.000000"
 preserveAspectRatio="xMidYMid meet">
<metadata>
Created by potrace 1.14, written by Peter Selinger 2001-2017
</metadata>
<g transform="translate(0.000000,512.000000) scale(0.100000,-0.100000)"
fill="#000000" stroke="none">
<path d="M540 4783 c-85 -30 -152 -90 -191 -171 -33 -68 -33 -197 1 -266 73
-150 244 -220 403 -164 l58 20 220 -218 c127 -127 226 -234 235 -254 15 -35
68 -238 78 -304 3 -20 9 -53 12 -73 16 -102 22 -204 19 -373 -2 -102 -5 -192
-8 -200 -3 -8 -8 -37 -11 -65 -3 -27 -9 -70 -15 -95 -5 -25 -12 -57 -15 -72
-45 -253 -223 -636 -404 -871 l-45 -59 62 -121 c34 -67 71 -134 84 -150 l22
-27 30 26 c216 187 393 416 515 669 92 190 162 411 186 585 3 25 7 47 9 50 6
10 18 187 18 265 0 82 -10 249 -19 301 -40 250 -94 422 -195 629 -80 165 -68
156 -131 104 -29 -24 -55 -46 -58 -49 -37 -38 -30 -42 -261 188 l-221 221 22
62 c54 158 -16 328 -165 398 -65 30 -172 37 -235 14z"/>
<path d="M2895 4358 c425 -359 701 -841 789 -1373 5 -32 11 -79 22 -165 12
-102 5 -405 -11 -489 -2 -10 -6 -42 -10 -72 -4 -30 -22 -112 -40 -184 -141
-559 -480 -1030 -970 -1348 -56 -35 -138 -83 -184 -106 -104 -53 -294 -131
-317 -131 -29 0 -10 -10 58 -28 74 -21 80 -21 243 13 256 53 485 146 705 289
216 139 410 323 557 526 260 360 395 772 397 1210 1 168 -5 246 -29 384 -101
577 -465 1113 -960 1413 -123 74 -145 84 -207 89 -35 3 -70 7 -78 10 -8 2 8
-15 35 -38z"/>
<path d="M2455 4380 c-11 -4 -27 -5 -35 -2 -8 3 21 -33 66 -79 359 -374 560
-791 628 -1309 21 -154 14 -470 -13 -625 -82 -475 -281 -869 -610 -1209 -175
-180 -370 -323 -603 -442 l-132 -67 68 -34 c79 -40 78 -40 256 13 723 218
1278 830 1431 1579 11 55 22 120 25 145 2 25 7 61 10 80 6 40 7 355 0 385 -2
11 -7 47 -11 80 -10 93 -52 279 -85 378 -147 438 -418 800 -802 1071 -62 43
-71 47 -120 45 -30 -1 -63 -5 -73 -9z"/>
<path d="M2107 4303 c-54 -18 -77 -30 -73 -39 3 -7 32 -48 64 -91 121 -160
240 -377 312 -572 28 -77 83 -272 94 -331 23 -134 25 -149 33 -230 13 -137 7
-432 -11 -525 -2 -11 -7 -40 -11 -65 -43 -270 -167 -590 -321 -833 -179 -280
-438 -535 -711 -700 -29 -18 -53 -35 -53 -38 0 -9 144 -119 156 -119 31 0 268
111 379 178 381 229 694 600 859 1020 33 84 80 233 90 286 2 11 9 43 15 69 6
26 13 65 16 86 3 20 9 66 14 102 10 65 7 425 -3 489 -11 68 -47 245 -56 275
-90 303 -212 543 -385 760 -117 146 -281 306 -312 304 -10 0 -53 -12 -96 -26z"/>
<path d="M3602 4142 c292 -282 485 -598 602 -985 33 -108 51 -188 62 -272 3
-22 7 -46 9 -53 18 -54 26 -393 12 -527 -18 -179 -49 -323 -108 -499 -158
-475 -466 -879 -883 -1158 -117 -78 -405 -228 -438 -228 -9 0 -20 -5 -23 -10
-4 -6 6 -8 27 -5 18 2 56 7 83 9 83 9 124 16 250 46 286 68 566 208 798 399
l88 73 337 -337 c185 -185 348 -341 360 -346 51 -20 113 42 93 93 -5 12 -160
175 -346 360 l-337 338 62 72 c239 281 419 697 457 1063 10 90 10 338 1 435
-26 274 -128 576 -281 830 -44 73 -158 231 -191 266 -6 6 -36 37 -65 69 -140
148 -320 286 -504 385 -173 92 -177 91 -65 -18z"/>
<path d="M1778 4162 c-48 -26 -97 -54 -110 -63 l-23 -16 22 -39 c11 -22 31
-57 43 -79 100 -180 193 -472 234 -735 18 -112 23 -320 12 -460 -35 -460 -202
-889 -485 -1244 -66 -82 -243 -264 -298 -306 -18 -14 -33 -29 -33 -34 0 -19
146 -186 163 -186 17 0 160 91 257 164 86 64 280 248 338 319 101 125 207 286
271 414 64 129 148 364 165 466 3 15 7 35 10 45 4 15 10 46 22 122 24 151 24
468 -1 599 -1 9 -6 36 -10 61 -12 81 -62 264 -100 366 -81 216 -228 467 -367
626 l-24 26 -86 -46z"/>
<path d="M1060 3513 c-168 -250 -277 -538 -325 -863 -11 -70 -14 -357 -5 -446
10 -104 41 -261 68 -349 l18 -60 63 95 c170 258 283 568 326 900 12 88 13 396
2 480 -14 105 -29 183 -46 250 -12 41 -21 78 -21 83 0 21 -21 -2 -80 -90z"/>
</g>
</svg>
