<?xml version="1.0" standalone="no"?>
<!DOCTYPE svg PUBLIC "-//W3C//DTD SVG 20010904//EN"
 "http://www.w3.org/TR/2001/REC-SVG-20010904/DTD/svg10.dtd">
<svg version="1.0" xmlns="http://www.w3.org/2000/svg"
 width="296.000000pt" height="296.000000pt" viewBox="0 0 296.000000 296.000000"
 preserveAspectRatio="xMidYMid meet">
<metadata>
Created by potrace 1.14, written by Peter Selinger 2001-2017
</metadata>
<g transform="translate(0.000000,296.000000) scale(0.100000,-0.100000)"
fill="#000000" stroke="none">
<path d="M2289 2927 c-40 -34 -91 -120 -180 -303 -44 -93 -83 -171 -85 -173
-2 -2 -27 3 -54 12 -90 29 -232 49 -355 49 -258 1 -479 -67 -710 -220 -71 -47
-265 -230 -265 -249 0 -6 -4 -13 -9 -15 -14 -5 -96 -137 -134 -216 -30 -61
-65 -152 -73 -187 -39 -178 -45 -224 -45 -350 0 -216 49 -409 151 -596 22 -39
40 -75 40 -78 0 -3 -15 -22 -33 -42 -59 -67 -81 -93 -129 -157 -85 -112 -140
-167 -245 -249 -75 -57 -77 -60 -67 -87 7 -19 28 -21 46 -4 7 7 38 32 68 54
80 60 158 139 230 235 36 46 79 100 96 119 18 19 41 45 52 58 l20 22 43 -52
c63 -76 165 -173 229 -216 30 -20 57 -40 60 -43 22 -28 350 -172 350 -153 0 2
8 1 18 -5 9 -5 39 -12 66 -15 27 -4 54 -10 59 -13 5 -3 78 -7 161 -8 179 -3
351 26 471 80 310 139 513 323 652 593 43 82 97 222 87 222 -3 0 0 9 6 19 9
18 14 41 25 126 2 17 7 41 10 55 7 34 7 249 0 280 -4 14 -8 41 -9 60 -2 19 -4
35 -5 35 -1 0 -4 15 -7 34 -13 102 -95 291 -187 431 -62 93 -230 261 -319 318
-50 33 -65 48 -61 60 4 9 9 19 13 22 6 5 97 133 156 220 85 125 105 213 62
277 -13 18 -29 33 -35 33 -7 0 -13 4 -13 9 0 12 -56 31 -94 31 -18 0 -42 -10
-57 -23z m77 -191 c-7 -43 -65 -167 -90 -192 -8 -7 -23 -24 -33 -36 -10 -13
-30 -31 -45 -40 -23 -15 -28 -16 -39 -2 -10 12 -9 26 5 72 52 165 223 334 202
198z"/>
</g>
</svg>
